<svg xmlns="http://www.w3.org/2000/svg" viewBox="0 0 480 74.7"><defs><style>.cls-1{fill:#d62c11;}.cls-1,.cls-2,.cls-5,.cls-6{fill-rule:evenodd;}.cls-2,.cls-4{fill:#444443;}.cls-3,.cls-5{fill:#1d1d1b;}.cls-6{fill:#fff;}</style></defs><title>Ресурс 8</title><g id="Слой_2" data-name="Слой 2"><g id="_1" data-name="1"><path class="cls-1" d="M11.19.59H76.28L79.09,3.4V68.49a2.78,2.78,0,0,1,0,.28h0L76.28,71.3H11.19L8.38,68.49V3.4a2.8,2.8,0,0,1,.05-.53Z"/><path class="cls-2" d="M11.19,0H76.53l3.15,3.15V68.49s0,.1,0,.17,0,.12,0,.17,0,.16,0,.23l-3.13,2.82H10.94L7.79,68.74V3.4c0-.09,0-.2,0-.32s0-.22,0-.32l0-.21L11,0ZM76,1.18H11.4L9,3.18H9c0,.06,0,.13,0,.21V68.25l2.46,2.46H76.06l2.44-2.2V3.64Z"/><path class="cls-2" d="M30.82,59.26S57.6,60.69,57.17,62a35.46,35.46,0,0,0-.84,4.52s.8,4.38-.74,5.7-9.86,2.18-12.13,2S32.78,73.1,32.78,73.1s-1.64.28-1.61-2.79S30.82,59.26,30.82,59.26Z"/><path class="cls-2" d="M42.24,38.7a14.35,14.35,0,0,0,2.53.57c.87,0,1.09.2,1.29,1.26s.56,4.5.56,4.5L47,50.45s-1.21.56-1.57.7a12.23,12.23,0,0,1-2,.62c-.92.19-1.74.5-1.8.34s0-7.56,0-7.56A17.12,17.12,0,0,1,42.24,38.7Z"/><path class="cls-1" d="M1.88,4.5C-.6,4.8-.52,4.5,1.48,6L9.12,8.05l.4-1.5Z"/><path class="cls-2" d="M7.16,7.68,7.2,7a.88.88,0,0,1,1.11-.84L11.63,7a.88.88,0,0,1,.62,1.08l-.42,1.55h0a.89.89,0,0,1-.07.19.88.88,0,0,1-1.19.36L8.06,8.87a1.76,1.76,0,0,1-.72-.61A.87.87,0,0,1,7.16,7.68Z"/><path class="cls-2" d="M12,8.92c-.1.39-.21.84-.28,1.15.1.1.31.29.55.49l.45-1.45L12,8.92Zm-2,.85c.16-.8.53-2.15.53-2.16h0A.88.88,0,0,1,11.56,7L14,7.66h0a.88.88,0,0,1,.58,1.1l-1.09,3.52a.88.88,0,0,1-1.4.47s-1.45-1.15-1.79-1.54A1.65,1.65,0,0,1,10,9.77Zm1.7.42h0Z"/><path class="cls-2" d="M14.16,9.45l-.65,2.44c.53.45,2,1.63,2,1.63a.87.87,0,0,1,.27.36h0s-.09-.21.53,0l3.69,1c.15-.42.44-1.34,1-3.56l-3-1.08-3.84-.76Zm-2.43,2.29.95-3.52a.88.88,0,0,1,1-.65l4.7.93h0l.12,0,3.87,1.38A.88.88,0,0,1,22.94,11a34.14,34.14,0,0,1-1.49,5l0,.05c-.34.88-1.4.68-1.76.58h0s-2.69-.72-3.78-1A4.15,4.15,0,0,1,14.59,15a.89.89,0,0,1-.18-.11s-1.87-1.5-2.21-1.8a1.25,1.25,0,0,1-.5-1.27Z"/><path class="cls-2" d="M21.46,15.86h0ZM20.79,17a1.32,1.32,0,0,1-1.05-1.49h0c.23-1.12,1.51-5,1.51-5h0a.88.88,0,0,1,1-.59l2.85.53.18,0a13.5,13.5,0,0,1,2.13.92c.53.51-.82,4.47-1.17,5.48l0,.07,0,.06a1.33,1.33,0,0,1-1.72,1h0s-3.11-.79-3.66-1Zm.78-1.6c.69.2,2.38.63,3,.8.38-.87,1.83-3.32,1.58-3.56l-1.44-.52-2.06-.38C22.38,12.71,21.83,14.43,21.57,15.4Z"/><rect class="cls-3" x="24.67" y="11.78" width="4.1" height="2.81" rx="0.88" ry="0.88" transform="translate(7.05 35.57) rotate(-74.97)"/><path class="cls-2" d="M27.94,13.08l-.87,4.56v0h0s0,.11.61.45c1,.5,4.1,1.92,5.44,2.53.2-.51.68-1.9,1.74-5.7l-3.68-1.51-3.24-.37Zm-2.59,4.2,1-5.29a.88.88,0,0,1,1-.75l4.16.48h0a.88.88,0,0,1,.23.06l4.5,1.85a.88.88,0,0,1,.53,1.05,36.72,36.72,0,0,1-2.52,7.2.88.88,0,0,1-.45.62h0a.88.88,0,0,1-.76,0s-4.85-2.17-6.15-2.85C25,18.7,25.35,17.28,25.35,17.28Z"/><path class="cls-2" d="M34.47,21.44c.15.09.34.19.59.3l.31.14h0a3.43,3.43,0,0,1,2,1.52,1.31,1.31,0,0,0,.5.37,8,8,0,0,0,1.59.58l.39.1c1.43.34,3.39.82,3.69,3.35a10.56,10.56,0,0,1,0,1.8,15.5,15.5,0,0,1-.45,2.88A4,4,0,0,1,42.41,34a3.21,3.21,0,0,1,1.39,3.55.92.92,0,0,1,0,.12h0a.87.87,0,0,1-.06.15H44c1.3,0,3.08,0,3.36,2.54.22,2,.92,8.94.92,9h0a2.82,2.82,0,0,1-1.48,2.73,15,15,0,0,1-4.31,1.25h0c-.58,1.06-4.59,1.37-4.6,1.37h-.08c-.51,0-4.77.29-5.34,1.94l-.06.13a2.13,2.13,0,0,0-.17.67v3.79a.89.89,0,0,1,0,.11.44.44,0,0,0,.31.47c1,.31,7.28.88,7.3.88l.1,0h0a3.14,3.14,0,0,1,1.17.51l0,0a2,2,0,0,0,.45.22,1.56,1.56,0,0,0,.49.11h.05c1.39,0,1.43,0,1.49,1.24,0,.08,0,.17,0,.27h3.64v-.29c0-.32-.06-1.39,1.47-1.35a7.48,7.48,0,0,0,.75,0,.88.88,0,0,1,.75-.86h0l2.52-.38h.1c.47,0,2.43-.14,2.7-.23v-.08A.88.88,0,0,1,56.3,61h.05l1.92-.08c.07,0,.19,0,.19-.07s0-.2,0-.3c0-.48,0-.9-2.54-3a.87.87,0,0,1-.32-.7h0l.13-4a11.34,11.34,0,0,1-2.26-.93,9.64,9.64,0,0,0-.92-.42c-1.35-.56-2.68-1.12-2.89-3.15-.12-1.15-.42-3.44-.85-6-.3-1.72-.66-3.53-1.06-5.14-.18-.72-.37-1.37-.53-2-.9-3.2-1.45-5.19.69-6.45a36.69,36.69,0,0,1,5.62-2.22c-2.64-1.09-6.88-2.87-8.46-3.67-1.21-.61-2.31-1.21-3.21-1.77a11.31,11.31,0,0,1-2-1.47A3.64,3.64,0,0,1,39,18.53a2,2,0,0,1-.1-1.12c.07-.66.86-3.3.86-3.31a.88.88,0,0,1,.09-.19,2.13,2.13,0,0,1,1.65-1,49.63,49.63,0,0,1,6.75-.37,51.72,51.72,0,0,1,6.58.42c1.35.18,2.55.39,3.64.58,2.9.5,5,.85,5.81.13a16.74,16.74,0,0,0-2.94-1.35,2.33,2.33,0,0,0-1,.21,5,5,0,0,1-3,.29c-1.86-.43-9.15-2.3-9.17-2.3h0a3.27,3.27,0,0,1-2.1-1.32c-.25.31-.71.45-1.56.27S42.32,8.92,42,8.84,40.78,8.53,40.68,7c0-.23-.13-.23-.48-.23h0A7.24,7.24,0,0,0,38.33,7c-.07,0-.1-.35-.11-.19a59,59,0,0,1-1.62,8.41,42.14,42.14,0,0,1-2.13,6.23Zm-.13,1.9a5.64,5.64,0,0,1-1.59-1h0a.88.88,0,0,1-.17-1,38.57,38.57,0,0,0,2.33-6.59,57,57,0,0,0,1.56-8c0-.76.6-1.19,1.38-1.41a8.9,8.9,0,0,1,2.33-.24h0c1.58,0,2.1,0,2.22,1.87,0,.14-.38.17-.38.17h0a.87.87,0,0,1,.28,0s1.25.31,2.31.54v0a1.08,1.08,0,0,1,1.25-.78,1.73,1.73,0,0,1,.64.26,3.4,3.4,0,0,1,1,1.1,1.39,1.39,0,0,0,.91.55l.16,0s7.36,1.88,9.13,2.29a3.54,3.54,0,0,0,2-.25,3.39,3.39,0,0,1,1.9-.27,23.84,23.84,0,0,1,4.17,1.94.88.88,0,0,1,.46,1c-.84,3-3.73,2.46-8.16,1.69-1.11-.19-2.33-.4-3.58-.57a49.9,49.9,0,0,0-6.35-.41,47.54,47.54,0,0,0-6.44.35c-.37.06-.34-.09-.34-.09l0,.1s-.74,2.46-.8,3c0,.16,0,.26,0,.27a2.67,2.67,0,0,0,.48.56,9.7,9.7,0,0,0,1.66,1.21c.84.52,1.89,1.09,3.08,1.69,2.28,1.15,10.54,4.52,10.57,4.53a.88.88,0,0,1-.08,1.66,55.13,55.13,0,0,0-7.55,2.78c-1,.58-.57,2.07.1,4.46.18.63.37,1.31.55,2,.42,1.65.79,3.51,1.09,5.27.44,2.53.74,4.88.86,6.07.1,1,1,1.35,1.82,1.71a10.61,10.61,0,0,1,1.1.51,9.61,9.61,0,0,0,2.45.92.88.88,0,0,1,.73.89l-.14,4.26c2.86,2.44,2.85,3.23,2.84,4.11,0,.07,0,.13,0,.21.07,1.62-1.7,1.88-1.7,1.88H58.4L57,62.69c-.92.87-4.09,1.26-4.1,1.27l-1.68.25c-.14.59-.68.86-1.35,1a6.61,6.61,0,0,1-.92.05V66a.88.88,0,0,1-.88.87H42.69a.88.88,0,0,1-.88-.88s0-.32,0-.64a3.44,3.44,0,0,1-.91-.21,3.85,3.85,0,0,1-.94-.51l-.08-.07a2,2,0,0,0-.33-.09c-.7-.06-6.51-.61-7.59-.95a2.17,2.17,0,0,1-1.53-2.3V57.45a4,4,0,0,1,.32-1.36h0C31.68,53.36,37,53,37.66,53h0s3.1-.24,3.12-.28a1.51,1.51,0,0,1,1.49-1.09,12.76,12.76,0,0,0,3.59-1,1.08,1.08,0,0,0,.64-1v-.07s-.68-6.77-.92-8.95c-.1-1-1-1-1.62-1-.22,0-.42,0-.6,0-1.84-.17-1.4-2-1.29-2.37a1.82,1.82,0,0,0-1.36-2.07l-.09,0c-1.1-.44-.83-1.66-.74-2a.88.88,0,0,1,1.26-.56,1.2,1.2,0,0,0,.42.11c.09-.05-.24-.27-.14-.64a13.66,13.66,0,0,0,.39-2.54,8.83,8.83,0,0,0,0-1.5c-.15-1.32-1.42-1.63-2.35-1.85L39,26.05a9.64,9.64,0,0,1-2-.73,2.84,2.84,0,0,1-1.25-1.12c-.14-.27-.55-.45-1.16-.73h0l-.32-.14Zm14.6,41.21h0Zm.6-.67.09.13-.1-.11Z"/><path class="cls-2" d="M41,52.71a4.7,4.7,0,0,1-.15-1c0-.52,0-4.84.29-8.6a21.87,21.87,0,0,1,.88-5.21.88.88,0,0,1,1.61-.07H44c1.3,0,3.08,0,3.36,2.54.22,2,.92,8.94.92,9h0a2.82,2.82,0,0,1-1.48,2.73,15,15,0,0,1-4.31,1.25h-.13a.88.88,0,0,1-1.06-.14h0a.88.88,0,0,1-.25-.5Zm1.9-9.44c-.2,2.44-.28,5.09-.3,6.75,0,0-.68.11-.57,1h0l.56-.12c0,.28,0,.49,0,.62a11.47,11.47,0,0,0,3.25-1,1.08,1.08,0,0,0,.64-1v-.07s-.68-6.77-.92-8.95c-.1-1-1-1-1.62-1l-.57,0A31.79,31.79,0,0,0,42.93,43.27Z"/><path class="cls-2" d="M56.81,51.27h0Zm1.09.74c.06,1-.87,1-1.27,1h-.18a11.58,11.58,0,0,1-3-1.11,9.64,9.64,0,0,0-.92-.42c-1.35-.56-2.68-1.12-2.89-3.15-.12-1.15-.42-3.44-.85-6-.3-1.72-.66-3.53-1.06-5.14-.18-.72-.37-1.37-.53-2-.9-3.2-1.45-5.19.69-6.45a36.69,36.69,0,0,1,5.62-2.22c-2.64-1.09-6.88-2.87-8.46-3.67-1.21-.61-2.31-1.21-3.21-1.77a11.31,11.31,0,0,1-2-1.47A3.64,3.64,0,0,1,39,18.53a2,2,0,0,1-.1-1.12c.07-.66.86-3.3.86-3.31h0a2,2,0,0,1,1.73-1.23,49.63,49.63,0,0,1,6.75-.37,51.72,51.72,0,0,1,6.58.42c1.35.18,2.55.39,3.64.58,3.48.6,5.74,1,6.16-.43a.88.88,0,0,1,1-.64A26,26,0,0,1,70,14a35.36,35.36,0,0,1,4.82,2.52c1.07.89.55,4.2.55,4.21h0l-.38,4a.88.88,0,0,1-.06.28S73,29.77,72.39,30.82a4.29,4.29,0,0,1-1.45,1.53,4,4,0,0,1-2.33.54c-.76,0-1.58-.11-2.59-.25s-2.18-.33-3.63-.6a11.47,11.47,0,0,0-3-.3,5.66,5.66,0,0,0-2.09.66,2.06,2.06,0,0,0-1,1.17,3.45,3.45,0,0,0-.21,1.94c.29.79,1.37,7.42,1.38,7.44a.94.94,0,0,1,0,.1s.41,8.77.42,9Zm-1.8-.92-.37-7.9c-.1-.58-1.07-6.48-1.29-7.08a5.4,5.4,0,0,1,.22-3.17,3.77,3.77,0,0,1,1.83-2.11A7.28,7.28,0,0,1,59.2,30a13,13,0,0,1,3.51.32c1.45.28,2.59.46,3.53.59s1.73.19,2.45.23A2.25,2.25,0,0,0,70,30.85a2.59,2.59,0,0,0,.85-.92c.5-.85,2.06-4.72,2.35-5.44l.37-3.94v0h0s.36-2.36.07-2.6a35.84,35.84,0,0,0-4.42-2.27A32.58,32.58,0,0,0,66,14.34c-1.13,2-3.86,1.57-7.83.88-1.11-.19-2.33-.4-3.58-.57a49.9,49.9,0,0,0-6.35-.41,47.54,47.54,0,0,0-6.44.35c-.37.06-.34-.09-.34-.09a.89.89,0,0,1,0,.11c-.05.18-.74,2.47-.79,3,0,.16,0,.26,0,.27a2.67,2.67,0,0,0,.48.56,9.7,9.7,0,0,0,1.66,1.21c.84.52,1.89,1.09,3.08,1.69,2.28,1.15,10.54,4.52,10.57,4.53a.88.88,0,0,1-.09,1.66,54.32,54.32,0,0,0-7.53,2.78c-1,.58-.57,2.07.1,4.46.18.63.37,1.31.55,2,.42,1.65.79,3.51,1.09,5.27.44,2.53.74,4.88.86,6.07.1,1,1,1.35,1.82,1.71a10.61,10.61,0,0,1,1.1.51A9.42,9.42,0,0,0,56.09,51.08Z"/><path class="cls-2" d="M40.81,7.55c0-.06,0-.16,0-.27h0a2.53,2.53,0,0,1,.2-.8,1.25,1.25,0,0,1,1.16-.8h.19a26.15,26.15,0,0,1,2.55.61c.27.06,1.58.4,1.49,1.54a.88.88,0,0,1-.05.24s0,0,0,0a1.61,1.61,0,0,1,0,.51c-.14.67-.54,1.1-1.8.84-.94-.2-2.23-.51-2.55-.59a1.37,1.37,0,0,1-1.13-.92A.87.87,0,0,1,40.81,7.55Z"/><path class="cls-2" d="M47.65,10c-.25-.4-1.17-2.12,1.68-1.67a7.29,7.29,0,0,0,1.07.12,1.43,1.43,0,0,1,1.13-.19,2.25,2.25,0,0,1,.9.41,1.62,1.62,0,0,1,.26.26,1.75,1.75,0,0,0,.37.33,2,2,0,0,0,.47.24,4.2,4.2,0,0,1,.64.29,1.87,1.87,0,0,0,.76.27h.17c.85,0,1.49,0,1.77,1.26a.88.88,0,0,1-1.09,1c-3.21-.8-7.55-1.91-7.57-1.91A.88.88,0,0,1,47.65,10Z"/><path class="cls-2" d="M7.32,6.53l.32-.64a.87.87,0,0,1,.46-.42A1.77,1.77,0,0,1,9,5.32l2.84.11a.88.88,0,0,1,.82,1.1h0l-.42,1.55a.88.88,0,0,1-1.08.62L7.85,7.82a.88.88,0,0,1-.54-1.29Z"/><path class="cls-2" d="M10.48,7.61s.38-1.4.63-2.15a1.64,1.64,0,0,1,1.06-1c.48-.16,2.32-.43,2.32-.43a.88.88,0,0,1,1,1.11L14.65,8.7a.88.88,0,0,1-1.05.66h0l-2.46-.66a.88.88,0,0,1-.62-1.08h0Zm2.27-1.52c-.1.31-.23.75-.34,1.14l.72.19.34-1.47C13.17,6,12.89,6.05,12.75,6.09Z"/><path class="cls-2" d="M12.68,8.17l.95-3.52a1.24,1.24,0,0,1,1.08-.9c.49-.1,2.81-.45,2.82-.46a.87.87,0,0,1,.26,0,4.11,4.11,0,0,1,1.29.15c1,.26,3.48.92,3.77,1s1.47.38,1.31,1.41V5.9A33.72,33.72,0,0,1,22.94,11a.88.88,0,0,1-1.07.62l-4-.74-.13,0h0L13.23,9.26a.88.88,0,0,1-.55-1.09Zm2.56-2.74-.65,2.43,3.71,1.27,3.16.59c.6-2.23.81-3.16.89-3.6-.43-.12-2.76-.74-3.7-1-.51-.13-.45-.27-.42-.31a.87.87,0,0,1-.44.2S15.9,5.32,15.24,5.43Z"/><path class="cls-2" d="M22.45,5.41v0a.86.86,0,0,1,.07-.14,1.34,1.34,0,0,1,1.57-.58c.56.12,3.3.9,3.62,1a1.34,1.34,0,0,1,1,1.74v.06h0c-.18.92-1,5.22-1.75,5.4a13.6,13.6,0,0,1-2.3-.27l-.13,0-2.77-1a.88.88,0,0,1-.57-1c0-.2.87-4.07,1.21-5.11v0ZM27,7.27c-.66-.19-2.33-.66-3-.83-.26,1-.65,2.73-.87,3.73l2,.71,1.49.28C26.93,11.06,26.89,8.22,27,7.27Z"/><rect class="cls-4" x="25.28" y="9.52" width="4.1" height="2.81" rx="0.88" ry="0.88" transform="translate(9.68 34.48) rotate(-74.96)"/><path class="cls-2" d="M26.41,11.81,28.2,6.7l0-.07h0a2.3,2.3,0,0,1,2.48-1.25c1.46.06,6.73.61,6.75.61a.88.88,0,0,1,.65.4h0a.88.88,0,0,1,.08.77,36.77,36.77,0,0,1-1.43,7.49.88.88,0,0,1-1,.65L31,14.66a.87.87,0,0,1-.25-.07l-3.82-1.67a.88.88,0,0,1-.47-1.11Zm3.45-4.56-1.53,4.39,3,1.3,3.94.54c1-3.81,1.27-5.25,1.35-5.8-1.46-.15-4.88-.49-6-.54-.73,0-.75.07-.75.07Z"/><path class="cls-5" d="M48.23,25.82c-.18-.08-1.29-.53-1.57-.36a.21.21,0,0,0-.09.1.16.16,0,0,0,0,.07.1.1,0,0,0,0,0,.38.38,0,0,0,.19.13,5.72,5.72,0,0,0,1.64.37c.19,0,.22.18.26.11v0a.21.21,0,0,0,0-.13.36.36,0,0,0-.15-.17.86.86,0,0,0-.2-.09l-.1,0ZM45.73,24c1-.63,2.89.11,3.18.23a2.61,2.61,0,0,1,.58.28,2.08,2.08,0,0,1,.86,1.07,2,2,0,0,1,0,1.25,1.68,1.68,0,0,1-2,1.13,7.61,7.61,0,0,1-2.18-.48,2.1,2.1,0,0,1-1.06-.84,1.86,1.86,0,0,1-.28-.84,1.9,1.9,0,0,1,.12-.83A2,2,0,0,1,45.73,24Z"/><path class="cls-2" d="M38.3,26.59a1.45,1.45,0,0,1,.42-2.09l.07,0h0a.88.88,0,0,1,.66-.09l.39.1c1.43.34,3.39.82,3.69,3.35a10.56,10.56,0,0,1,0,1.8,15.5,15.5,0,0,1-.45,2.88,3.54,3.54,0,0,1-.86,1.69.87.87,0,0,1-.53.26h-.18a3.36,3.36,0,0,1-1-.21l-.15,0s-1.17-.44-2.25-.71-1.22-.93-1-1.83a7.12,7.12,0,0,1,.58-1.37,6.75,6.75,0,0,0,.52-1.21,6.24,6.24,0,0,0,.19-1.62,2,2,0,0,0-.17-.87Zm1.77-.27a4.63,4.63,0,0,1,.15,1.09A8,8,0,0,1,40,29.49a7.79,7.79,0,0,1-.66,1.58c-.15.29-.29.57-.38.8.78.21,1.56.48,1.9.61a.88.88,0,0,1,.28.09h0a1.2,1.2,0,0,0,.42.11c.09-.05-.24-.27-.14-.64a13.66,13.66,0,0,0,.39-2.54,8.83,8.83,0,0,0,0-1.5C41.67,27,40.86,26.56,40.06,26.32Z"/><path class="cls-2" d="M32.44,67v.33c0,1.93-.64,4.14-.32,4.18a.88.88,0,0,1,.25.07c.29.11,2.84,1,8.47,1.17,0-.08,0-.16,0-.24a3.85,3.85,0,0,1-1.48-2.26,8.75,8.75,0,0,1-.25-2.32A57.24,57.24,0,0,1,32.44,67Zm-1.75.33c0-.48,0-.93,0-1.35A.88.88,0,0,1,31.77,65a51.29,51.29,0,0,0,8.32,1.19h.1a.88.88,0,0,1,.7,1A6.5,6.5,0,0,0,41,69.79a2.29,2.29,0,0,0,.91,1.34c.44.35.73.57.59,1.2,0,.06.24,1,.24,1a.9.9,0,0,1,0,.22.88.88,0,0,1-.88.87c-7.13,0-10.22-1.31-10.23-1.32h0C30.7,72.66,30.69,69.76,30.69,67.3Z"/><path class="cls-2" d="M55.09,66.88a26.67,26.67,0,0,1-4.16.79c0,1.36-.26,3.92-1.87,4.81v.07c1.58-.14,4.39-.45,5.09-.92s.79-.71.83-1.53v-.17c0-.77.08-2.08.1-3ZM50,66a23.26,23.26,0,0,0,5.72-1.13h0a.88.88,0,0,1,1.17.83s0,3-.12,4.32v.17c-.09,1.53-.11,1.9-1.62,2.9s-7,1.29-7.05,1.29h0a.88.88,0,0,1-.89-1.15,2.58,2.58,0,0,0,.13-.79,1.54,1.54,0,0,1,.8-1.45l.08,0c1.25-.6,1-4,1-4h0A.88.88,0,0,1,50,66Z"/><path class="cls-2" d="M42.77,73.35s-.14-.43.55-.43h.86c1.25,0,2.91.67,3,.36l0-.08a3,3,0,0,0,.08-.3,2.23,2.23,0,0,0,0-.47,1.55,1.55,0,0,1,.88-1.5h0c1.25-.6,1-4,1-4A.88.88,0,0,1,50,66h0a24,24,0,0,0,5.43-1c0-.28,0-.9,0-1.47a22.67,22.67,0,0,1-2.54.48l-1.68.25c-.14.59-.68.86-1.35,1a6.61,6.61,0,0,1-.92.05V66a.88.88,0,0,1-.88.87c-1.78,0-3.58,0-5.36,0a.88.88,0,0,1-.88-.88h0s0-.32,0-.64a3.44,3.44,0,0,1-.91-.21,3.62,3.62,0,0,1-1-.57h0a2,2,0,0,0-.33-.09c-.66-.06-5.85-.54-7.36-.88v1.55a54.08,54.08,0,0,0,7.91,1.09.88.88,0,0,1,.8,1.07A6.62,6.62,0,0,0,41,69.79a2.29,2.29,0,0,0,.91,1.34c.44.35.73.57.59,1.2,0,.06.19.85.23,1Zm.55,1.33a4.3,4.3,0,0,1-1.45-.21.88.88,0,0,1-.77-.59v0h0v0a10.48,10.48,0,0,1-.26-1.35,3.85,3.85,0,0,1-1.48-2.26,8.75,8.75,0,0,1-.25-2.32,52.32,52.32,0,0,1-7.72-1.16h0c-1-.24-.94-1.32-.92-1.54V61.77s0,0,0-.08a.88.88,0,0,1,.88-.88h0a.88.88,0,0,1,.86.7.43.43,0,0,0,.08.18.44.44,0,0,0,.22.13c.93.29,6.62.82,7.24.88l.16,0a3.14,3.14,0,0,1,1.17.51h0a1.78,1.78,0,0,0,.47.24,1.56,1.56,0,0,0,.49.11h.05c1.39,0,1.43,0,1.49,1.24,0,.08,0,.17,0,.27h3.64v-.29c0-.32-.06-1.39,1.47-1.35.23,0,.5,0,.75,0a.88.88,0,0,1,.75-.86l2.46-.37h.06a17.93,17.93,0,0,0,3-.56.88.88,0,0,1,1.55.57s0,2,0,2.8a1.45,1.45,0,0,1-.81,1.46l-.08,0a24.87,24.87,0,0,1-5.36,1.16c0,1.36-.26,3.92-1.87,4.81a4,4,0,0,1-.08.77,4.64,4.64,0,0,1-.12.5h0c-.3,1-2.9,1-4.7.94Zm12.61-9.87h0ZM49.58,64l-.05-.06h0Z"/><path class="cls-5" d="M45.38,68a6.11,6.11,0,0,1,2.23.38,1.61,1.61,0,0,1,0,3.16,6.65,6.65,0,0,1-4.45,0,1.61,1.61,0,0,1,0-3.16A6.11,6.11,0,0,1,45.38,68Zm1.44,2a5.13,5.13,0,0,0-2.88,0,5.14,5.14,0,0,0,2.88,0Zm.36,0s0,0-.05,0,.05,0,.05,0Zm-3.6,0s0,0,.05,0S43.57,69.91,43.57,70Z"/><path class="cls-2" d="M43.57,66.84v1.38a6.94,6.94,0,0,1,3.61,0V66.85Zm0,3.11H41.81V66h0a.88.88,0,0,1,.88-.88h5.36a.88.88,0,0,1,.88.88v3.87s0,.05,0,.08a.88.88,0,0,1-.88.88h0a.88.88,0,0,1-.88-.82c0-.07-.09.07-.26,0a4.39,4.39,0,0,0-1.55-.25,4.34,4.34,0,0,0-1.57.25C43.66,70.06,43.57,69.86,43.57,70Z"/><path class="cls-2" d="M39,63.66l-3.58-.58a1.45,1.45,0,0,1-1.21-1.26.91.91,0,0,1,0-.11,12.64,12.64,0,0,1,0-2.49,2,2,0,0,1,2-1.55c1.15-.14,3.55-.25,6.17-.32,4.2-.12,9-.16,10-.14,2.17,0,2.38,1.22,2.38,1.65l.15,2.81h0a.89.89,0,0,1,0,.19c-.36,2.24-4.48,2.55-4.49,2.55h0s-3.56.21-4.75.17c-.74,0-2.49-.08-3.72-.18a4,4,0,0,1-2-.5A5,5,0,0,0,39,63.66Z"/><path class="cls-5" d="M39.56,59.31H50.23a1.66,1.66,0,0,1,1.18.49h0a1.66,1.66,0,0,1,0,2.35h0a1.66,1.66,0,0,1-1.18.49H39.56a1.66,1.66,0,0,1-1.18-.49h0a1.66,1.66,0,0,1,0-2.35h0A1.66,1.66,0,0,1,39.56,59.31Z"/><path class="cls-2" d="M73.53,21.33c-3.73-.77-20.07-4.12-26.35-4.68l-.57,2.23c1.73.89,8,3.72,25.35,8.69.55-1.3,1.11-2.68,1.27-3.08l.3-3.16Zm-27-6.48c6.47.39,28,4.91,28.09,4.92h0a.88.88,0,0,1,.69.94l-.38,4a.88.88,0,0,1-.06.28s-.87,2.19-1.62,3.91a.88.88,0,0,1-1.06.53c-20.85-5.92-26.41-9-27-9.36a.88.88,0,0,1-.45-1l.91-3.6h0A.88.88,0,0,1,46.56,14.85Z"/><path class="cls-5" d="M68.63,19.65A3.7,3.7,0,1,1,66,20.73a3.69,3.69,0,0,1,2.62-1.08ZM70,22a1.94,1.94,0,1,0,.57,1.37A1.94,1.94,0,0,0,70,22Z"/><path class="cls-6" d="M8.08,7l0,.76s0,.12.42.35L11,9.42l.42-1.55Z"/><path class="cls-6" d="M11.33,7.84s-.38,1.42-.53,2.14a.74.74,0,0,0,.2.65c.28.32,1.69,1.43,1.69,1.43l1.1-3.56Z"/><path class="cls-2" d="M13.52,8.43l-1,3.54s-.12.16.21.46S15,14.2,15,14.2s.06.19,1.11.49,3.77,1,3.77,1,.66.24.76,0,.26-.3,1.49-4.95L18.22,9.36Z"/><path class="cls-6" d="M20.6,15.68s-.07.3.47.48,3.6,1,3.6,1,.47.21.69-.42A40.41,40.41,0,0,0,26.8,12,17.52,17.52,0,0,0,25,11.27l-2.89-.54S20.82,14.62,20.6,15.68Z"/><path class="cls-2" d="M27.23,12.12l-1,5.36s-.21.76,1.06,1.43,6.1,2.83,6.1,2.83.58-.23,2.54-7.29l-4.51-1.86Z"/><path class="cls-6" d="M33.37,21.73a4.73,4.73,0,0,0,1.33.81c1,.43,1.58.65,1.89,1.26s1.48,1.09,2.64,1.4,3.18.53,3.43,2.71-.52,5.69-1.06,5.66a2.22,2.22,0,0,1-.87-.22s-.27.75.21.94,2.64.81,2.22,3.14c0,0-.4,1.19.52,1.28s2.55-.31,2.78,1.77.92,9,.92,9a1.93,1.93,0,0,1-1.06,1.9,14.13,14.13,0,0,1-4,1.13c0,1.26-.77,1.17-4.59,1.37,0,0-5.39.21-6.19,2.53a3.22,3.22,0,0,0-.27,1.08c0,.48,0,3.79,0,3.79s-.15.85.92,1.19c1.83.57,7.57.37,8.6,1.28a1.68,1.68,0,0,0,1.18.51c.64,0,.66,0,.68.41s0,1.33,0,1.33h5.36V64.32s-.1-.41.57-.39,1.22,0,1.25-.37a.62.62,0,0,1,.4-.5c1.35-.2,5.32-.54,6.06-1.27l2,0s1-.15,1-1,.36-1.28-2.86-4l.15-4.68a10.59,10.59,0,0,1-2.73-1c-1.34-.75-3.16-.91-3.37-2.9A93.53,93.53,0,0,0,48.6,37c-1-4-2.15-6.33-.25-7.46s7.74-2.87,7.74-2.87-8.31-3.39-10.63-4.56a22.63,22.63,0,0,1-5-3.07c-.78-.79-.77-.95-.71-1.54s.83-3.15.83-3.15.07-.45,1-.62a54.85,54.85,0,0,1,13.06.06c6,.8,10,2.31,10.77-.5a24.52,24.52,0,0,0-4-1.87c-1.06-.22-2.15.93-4,.51s-9.15-2.3-9.15-2.3a2.37,2.37,0,0,1-1.6-1c-.51-.84-1.23-1.17-1.33-.81s.32,1-.77.72-2.6-.6-2.6-.6-.5.06-.57-1-.4-1-1.39-1-2.79.09-2.82.82S36.19,15.86,33.37,21.73Z"/><path class="cls-6" d="M42.07,51a1.87,1.87,0,0,1-.11-.72c0-.62,0-8.31.86-10.56h0a.46.46,0,0,0,.45.38c.71.07,2.15-.25,2.32,1.39s.71,7,.71,7a1.52,1.52,0,0,1-.82,1.49,13.25,13.25,0,0,1-3.42,1Z"/><path class="cls-2" d="M56.63,52.13s.4.07.39-.07-.42-9-.42-9-1.08-6.57-1.34-7.28-.13-3.34,1.61-4.19,2.77-1,5.68-.44a43.88,43.88,0,0,0,6.11.84,3.05,3.05,0,0,0,3-1.64c.59-1,2.46-5.67,2.46-5.67l.39-4.07s.44-2.84-.24-3.41a41.6,41.6,0,0,0-8.73-3.94c-.8,2.8-4.78,1.3-10.77.5a54.85,54.85,0,0,0-13.06-.06c-1,.17-1,.62-1,.62s-.77,2.56-.83,3.15-.07.75.71,1.54a22.63,22.63,0,0,0,5,3.07c2.32,1.17,10.63,4.56,10.63,4.56s-5.83,1.74-7.74,2.87S47.58,33,48.6,37a93.53,93.53,0,0,1,1.93,11.22c.21,2,2,2.15,3.37,2.9A10.59,10.59,0,0,0,56.63,52.13Z"/><path class="cls-2" d="M41.68,7.59s0-1.09.57-1,2.46.6,2.46.6.86.15.83.62a.21.21,0,0,0,0,.07c-.1.36.32,1-.77.72s-2.6-.6-2.6-.6S41.85,8,41.68,7.59Z"/><path class="cls-2" d="M48.43,9.63s-.41-.58.76-.39,1.56.16,1.71,0,.84,0,1.11.3a2.9,2.9,0,0,0,1.25.85,5.11,5.11,0,0,0,1.64.6c.55,0,1-.05,1.12.58C53.22,10.86,48.43,9.63,48.43,9.63Z"/><path class="cls-6" d="M8.08,7l.34-.68s0-.12.54-.1l2.86.11-.42,1.55L9.61,7.7Z"/><path class="cls-6" d="M11.33,7.84s.38-1.42.62-2.12a.74.74,0,0,1,.49-.46c.41-.13,2.18-.39,2.18-.39L13.79,8.5l-1.38-.07Z"/><path class="cls-2" d="M13.5,8.49l1-3.6s0-.2.42-.29,2.77-.44,2.77-.44.15-.14,1.2.13,3.78,1,3.78,1,.69.12.64.41.07.39-1.19,5l-4-.75Z"/><path class="cls-6" d="M23.28,5.7s.1-.3.64-.18,3.59,1,3.59,1,.51.06.39.71-1,4.87-1.13,5-1.92-.52-1.92-.52l-2.77-1S22.94,6.74,23.28,5.7Z"/><path class="cls-2" d="M27.23,12.12,29,7s.21-.76,1.63-.7,6.67.61,6.67.61.4.49-1.44,7.58l-4.83-.66Z"/><path class="cls-2" d="M48.6,25s-1.71-.74-2.4-.31a1,1,0,0,0,.26,1.91c1,.39,2.61.67,2.95.14A1.18,1.18,0,0,0,48.6,25Z"/><path class="cls-2" d="M31.56,66.49c0,2.18-.08,5.89.42,6,0,0,2.72,1.13,9.11,1.16a6.11,6.11,0,0,1-.23-1.34c.06-.26-1-.49-1.37-2a6.88,6.88,0,0,1-.14-2.68A48.13,48.13,0,0,1,31.56,66.49Z"/><path class="cls-2" d="M56,66.36a22.22,22.22,0,0,1-5.45,1.08s.31,3.66-1.33,4.46a.61.61,0,0,0-.35.62,3.23,3.23,0,0,1-.16,1s5-.33,6.06-1.05,1.06-1,1.13-2.19S56,66.36,56,66.36Z"/><path class="cls-6" d="M41.93,72.74s0,.18,1.39.18,4.59.12,4.7-.26h0v0a2.73,2.73,0,0,0,.16-.93.59.59,0,0,1,.39-.6c1.8-.76,1.46-4.27,1.46-4.27a27.28,27.28,0,0,0,6-1s.29,0,.31-.6,0-2.44,0-2.44h0c-.43.42-3.53.76-3.53.76l-2.49.33s.11.11.07.44-.58.34-1.25.33-.57.34-.57.34v1.09H42.11s0-.61,0-1,0-.35-.68-.36-.74-.34-.95-.5a2.48,2.48,0,0,0-.77-.27s-6.41-.51-7.48-.8a1.14,1.14,0,0,1-.89-.85h0v3.11s-.06.49.26.55A59.21,59.21,0,0,0,40,67a5.76,5.76,0,0,0,.16,2.56c.4,1.41,1.55,1.63,1.49,1.88A5.18,5.18,0,0,0,41.93,72.74Z"/><ellipse class="cls-4" cx="45.26" cy="69.95" rx="3.21" ry="1.09"/><path class="cls-2" d="M42.11,66v4c0-.6,1.45,0,3.21,0s3.16-.62,3.21,0h0V66Z"/><path class="cls-2" d="M38,59.72H51.83a1,1,0,0,1,1,1h0a1,1,0,0,1-1,1H38a1,1,0,0,1-1-1h0A1,1,0,0,1,38,59.72Z"/><path class="cls-6" d="M74.47,20.63s-21.56-4.53-28-4.91l-.91,3.6s4.76,3,26.86,9.3c.74-1.71,1.63-3.92,1.63-3.92Z"/><circle class="cls-4" cx="68.63" cy="23.35" r="2.82"/><path class="cls-2" d="M39.13,25.58a.58.58,0,0,0-.18.84A4.4,4.4,0,0,1,39,29.34c-.29,1.17-1.71,2.83-.69,3.08s2.16.68,2.16.68v0a2,2,0,0,0,.8.2c.49,0,1.2-3.21,1-5.21S40.21,25.87,39.13,25.58Z"/><path class="cls-6" d="M26.4,18.2l.4-1,6.78,1.44.65-2.07-6.47-2.95.36-1.39-.63-.07c-.45,1.63-.92,3.49-1.31,5.33A.94.94,0,0,0,26.4,18.2Z"/><path class="cls-6" d="M29.57,6.4,29.4,7.49,36,9.64l-.47,2.12-7.08-.69-.39,1.38-.58-.25C28.29,9.2,29,7,29,7h0v0A.94.94,0,0,1,29.57,6.4Z"/><path class="cls-2" d="M56.48,56.82l-.09,3.6a13.81,13.81,0,0,0,1-4C57.43,54.64,56.48,56.82,56.48,56.82Z"/><polygon class="cls-2" points="11.78 6.26 10.94 9.39 9.96 9.77 11.11 5.47 11.78 6.26"/><path class="cls-6" d="M16.33,7.66h0a.44.44,0,0,0,.31.53l4.67,1.26a.44.44,0,0,0,.53-.31h0a.44.44,0,0,0-.31-.53L16.86,7.35A.44.44,0,0,0,16.33,7.66Z"/><path class="cls-6" d="M16.72,6.21h0a.44.44,0,0,0,.31.53L21.7,8a.44.44,0,0,0,.53-.31h0a.44.44,0,0,0-.31-.53L17.25,5.91A.44.44,0,0,0,16.72,6.21Z"/><path class="cls-6" d="M17.11,4.77h0a.44.44,0,0,0,.31.53l4.67,1.26a.44.44,0,0,0,.53-.31h0a.44.44,0,0,0-.31-.53L17.64,4.46A.44.44,0,0,0,17.11,4.77Z"/><path class="cls-6" d="M15.94,9.1h0a.44.44,0,0,0,.31.53l4.67,1.26a.44.44,0,0,0,.53-.31h0a.44.44,0,0,0-.31-.53L16.47,8.8A.44.44,0,0,0,15.94,9.1Z"/><path class="cls-6" d="M15.55,10.55h0a.44.44,0,0,0,.31.53l4.67,1.26a.44.44,0,0,0,.53-.31h0a.44.44,0,0,0-.31-.53l-4.67-1.26A.44.44,0,0,0,15.55,10.55Z"/><path class="cls-6" d="M14.77,13.44h0a.44.44,0,0,0,.31.53l4.67,1.26a.44.44,0,0,0,.53-.31h0a.44.44,0,0,0-.31-.53L15.3,13.13A.44.44,0,0,0,14.77,13.44Z"/><path class="cls-6" d="M15.16,12h0a.44.44,0,0,0,.31.53l4.67,1.26a.44.44,0,0,0,.53-.31h0a.44.44,0,0,0-.31-.53l-4.67-1.26A.44.44,0,0,0,15.16,12Z"/><rect class="cls-4" x="23.19" y="13.95" width="0.84" height="4.34" transform="translate(1.91 34.74) rotate(-74.96)"/><rect class="cls-4" x="23.32" y="12.35" width="1.43" height="4.34" transform="translate(3.78 33.96) rotate(-74.96)"/><rect class="cls-4" x="23.86" y="10.35" width="1.43" height="4.34" transform="translate(6.11 33) rotate(-74.95)"/><rect class="cls-4" x="25.68" y="4.68" width="0.84" height="4.34" transform="translate(12.71 30.28) rotate(-74.96)"/><rect class="cls-4" x="24.95" y="6.29" width="1.43" height="4.34" transform="translate(10.84 31.05) rotate(-74.97)"/><rect class="cls-4" x="24.41" y="8.29" width="1.43" height="4.34" transform="translate(8.51 32.01) rotate(-74.96)"/><path class="cls-2" d="M104,22.49v7.35h13.25l.74-.16V26.22a1.37,1.37,0,0,0-.15-.71l.15-.86V22.49Zm24.18-9.76,0,.09V46.55c0,.15-.15.29-.44.44h-9.52a.25.25,0,0,1-.28-.28V39.78H104v6.92a.25.25,0,0,1-.29.28H93.65V20l7.63-7.49.2,0v-.17h26.73v.38Zm4.24-.35h8.16c.18,0,.28.13.28.29V24.93h13.26l.73-.16V12.67c0-.19.13-.29.28-.29H165c.2,0,.3.13.3.29V46.55c0,.15-.14.29-.43.44h-9.67a.25.25,0,0,1-.28-.28V34.87h-14V46.71a.25.25,0,0,1-.28.28h-9.67l-.09,0h-.47V12.34h2.07v0Zm35.73,0a.24.24,0,0,1,.21-.1h9.69c.2,0,.3.12.3.28V25h14V12.56a.29.29,0,0,1,.3-.28h9.82c.21,0,.3.12.3.28V24.28l-5.49,5.34v.16q0,.11,5.49,5.49V46.71c0,.18-.1.28-.3.28h-9.82c-.2,0-.3-.1-.3-.28v-12c0-.2-.09-.3-.28-.3H178.39V46.71c0,.18-.1.28-.3.28h-9.32v0h-.93V12.38Zm37.52-.1h34.15c.18,0,.28.12.28.28V46.71a.25.25,0,0,1-.28.28H205.71a.25.25,0,0,1-.28-.28V12.56c0-.18.12-.28.28-.28ZM216.2,22.59V37.15h13.38a.25.25,0,0,0,.28-.28V22.59Zm27-10.25h26.28q7.81,7.5,7.8,7.66V34.29q0,.22-7.66,7.63H253.14v4.78a.25.25,0,0,1-.28.28h-9.69a.25.25,0,0,1-.28-.28V12.62c0-.19.13-.28.28-.28Zm10,10.1v9.38l-.16.28h14V22.44ZM308,22.33l0,0H296.37c-.19,0-.28-.1-.28-.3V12.62c0-.19.12-.28.28-.28H330.3c.14,0,.29.14.43.43V22c0,.21-.1.3-.28.3H318.69V47H308V22.33Zm25.72-10a0,0,0,0,0,0,0l.43,0h32.81l.24,0,.1,0h.39v.22a.24.24,0,0,1,.09.17V23.26q-6.06,9.58-6.9,10.49H350.37v-.13q2.19-3.91,6.6-11.07V22.4H343.47V36.93h24c.18,0,.28.12.28.28v9.34c0,.15-.15.29-.44.44H333.55c-.14,0-.29-.15-.43-.44V12.38Zm36.81,0h9.69c.19,0,.29.12.29.28V25h14V12.62a.28.28,0,0,1,.3-.28h9.82c.18,0,.28.12.28.28V24.17l-5.49,5.65q3.57,3.36,5.49,5.47V46.71a.25.25,0,0,1-.28.28h-9.82c-.2,0-.3-.1-.3-.28V34.42H380.74c-.19,0-.28.13-.28.3v12a.25.25,0,0,1-.29.28h-9.69a.25.25,0,0,1-.28-.28V35.29l5.34-5.34v-.28q0-.19-4.91-4.91l-.43-.58V12.62c0-.19.12-.28.28-.28Zm38.9,0h8.16c.18,0,.28.13.28.29V24.93h13.26l.73-.16V12.67c0-.19.13-.29.28-.29h9.8c.2,0,.3.13.3.29V46.55c0,.15-.14.29-.43.44H432.1a.25.25,0,0,1-.28-.28V34.87h-14V46.71a.25.25,0,0,1-.28.28h-9.67l-.09,0h-.47V12.34h2.07v0Zm35.8-.1h34.15c.18,0,.28.12.28.28V46.71a.25.25,0,0,1-.28.28H445.19a.25.25,0,0,1-.28-.28V12.56c0-.18.12-.28.28-.28Zm10.49,10.31V37.15h13.38a.25.25,0,0,0,.28-.28V22.59ZM280.16,35.21V26.52H293.1v8.68Z"/><path class="cls-1" d="M237,53.67H235.7v5.56H235V53.46h2.72v5.77H237V53.67Zm5.77.42v2.58c0,.31-.19.5-.58.57a9.35,9.35,0,0,1-1.45.06v1.92h-.7V53.46h1.29a3.4,3.4,0,0,1,1.12.13.5.5,0,0,1,.31.51Zm-.7,2.64V54a.35.35,0,0,0-.17-.34,1.57,1.57,0,0,0-.68-.09h-.48v3.54h.48a1.64,1.64,0,0,0,.67-.09.33.33,0,0,0,.17-.33Zm2.88,1.9V54a.51.51,0,0,1,.31-.5,2.79,2.79,0,0,1,1.06-.14,2.73,2.73,0,0,1,1.05.14.51.51,0,0,1,.3.5v4.59a.52.52,0,0,1-.29.51,4,4,0,0,1-2.12,0,.52.52,0,0,1-.31-.51Zm.7-4.64v4.7q0,.43.66.43t.66-.43V54q0-.44-.66-.44t-.66.44Zm5.07.05v5h1.32V53.63h-.66a1,1,0,0,0-.56.12.39.39,0,0,0-.1.31Zm-.7,5V54.1a.51.51,0,0,1,.3-.51,2.86,2.86,0,0,1,1.07-.14h1.35V59h.68v.21h-4.09V59Zm5.07.21V54.1a.51.51,0,0,1,.3-.51,2.86,2.86,0,0,1,1.07-.14h1.35v5.77h-.7V56.3h-1.32v2.94Zm.7-3.15h1.32V53.63h-.64q-.68,0-.68.42v2Zm4.81,3.15h-.73v-2.5q0-.65,1.12-.65l-1.12-2.62h.73l.95,2.62h.34V53.46h.7v2.62H263l1-2.62h.73l-1.12,2.62q1.12,0,1.12.65v2.5h-.73V56.69a.36.36,0,0,0-.12-.31,1.06,1.06,0,0,0-.54-.09h-.64v2.94h-.7V56.3h-.64a1,1,0,0,0-.53.09.35.35,0,0,0-.12.3v2.55Zm6.08,0V54.1a.51.51,0,0,1,.3-.51,2.86,2.86,0,0,1,1.07-.14h1.35v5.77h-.7V56.3H267.4v2.94Zm.7-3.15h1.32V53.63h-.64q-.68,0-.68.42v2Zm8.25,2.55V54a.51.51,0,0,1,.31-.5A2.79,2.79,0,0,1,277,53.4a2.73,2.73,0,0,1,1.05.14.51.51,0,0,1,.3.5V55.2h-.7V54q0-.44-.66-.44t-.66.44v4.7q0,.43.66.43t.66-.43V57.36h.7v1.27a.52.52,0,0,1-.29.51,4,4,0,0,1-2.12,0,.52.52,0,0,1-.31-.51Zm6,.6h-.73V53.67h-1v-.21h2.77v.21h-1v5.56ZM287,54.1v2.58c0,.31-.19.5-.58.57a9.36,9.36,0,0,1-1.45.06v1.92h-.7V53.46h1.29a3.4,3.4,0,0,1,1.12.13.5.5,0,0,1,.31.51Zm-.7,2.64V54a.35.35,0,0,0-.17-.34,1.57,1.57,0,0,0-.68-.09H285v3.54h.48a1.64,1.64,0,0,0,.67-.09.33.33,0,0,0,.17-.33Zm2.88,1.9V54a.51.51,0,0,1,.31-.5,2.79,2.79,0,0,1,1.06-.14,2.73,2.73,0,0,1,1.05.14.51.51,0,0,1,.3.5v4.59a.52.52,0,0,1-.29.51,4,4,0,0,1-2.12,0,.52.52,0,0,1-.31-.51Zm.7-4.64v4.7q0,.43.66.43t.66-.43V54q0-.44-.66-.44t-.66.44Zm6.5,5.23V54.39l-.93,1.55a4.55,4.55,0,0,0-.47.78v2.52h-.65V53.46H295v2.69l1.52-2.69h.55v5.77Zm4.14,0h-.73V53.67h-1v-.21h2.77v.21h-1v5.56Zm4.73,0h-2V53.46h2v.21H304v2.41h1v.21h-1V59h1.34v.22Zm2.57,0H306.5V59h.67V54.1a.51.51,0,0,1,.3-.51,2.86,2.86,0,0,1,1.07-.14h1.35v5.77h-.7v-5.6h-.64q-.68,0-.68.42v5.18Zm4.35-5.77h.7v2.62a6.69,6.69,0,0,1,1.48.1.63.63,0,0,1,.54.64v1.77a.5.5,0,0,1-.32.51,3.21,3.21,0,0,1-1.12.13h-1.29V53.46Zm.7,2.8v2.82h.48a1.52,1.52,0,0,0,.66-.1.34.34,0,0,0,.18-.33v-2a.35.35,0,0,0-.17-.34,1.57,1.57,0,0,0-.68-.09Zm5.07,3h-.7V53.46h.7v2.62h1.32V53.46h.7v5.77h-.7V56.3H318v2.94Zm4.37-.6V54a.51.51,0,0,1,.31-.5,2.79,2.79,0,0,1,1.06-.14,2.73,2.73,0,0,1,1.05.14.51.51,0,0,1,.3.5v4.59a.52.52,0,0,1-.29.51,4,4,0,0,1-2.12,0,.52.52,0,0,1-.31-.51Zm.7-4.64v4.7q0,.43.66.43t.66-.43V54q0-.44-.66-.44t-.66.44Zm5.09,5.23h-.73V53.46h2v.21h-1.24v5.56Zm3.11-.6V54a.51.51,0,0,1,.31-.5,2.79,2.79,0,0,1,1.06-.14,2.73,2.73,0,0,1,1.05.14.51.51,0,0,1,.3.5v4.59a.52.52,0,0,1-.29.51,4,4,0,0,1-2.12,0,.52.52,0,0,1-.31-.51ZM332,54v4.7q0,.43.66.43t.66-.43V54q0-.44-.66-.44T332,54Zm10.38,5.23V54.39l-.93,1.55a4.51,4.51,0,0,0-.47.78v2.52h-.65V53.46h.65v2.69l1.52-2.69H343v5.77Zm9-5.56H350v5.56h-.7V53.46H352v5.77h-.7V53.67Zm5.77.42v2.58c0,.31-.19.5-.58.57a9.35,9.35,0,0,1-1.45.06v1.92h-.7V53.46h1.29a3.4,3.4,0,0,1,1.12.13.5.5,0,0,1,.31.51Zm-.7,2.64V54a.35.35,0,0,0-.17-.34,1.57,1.57,0,0,0-.68-.09h-.48v3.54h.48a1.64,1.64,0,0,0,.67-.09.33.33,0,0,0,.17-.33Zm2.88,1.9V54a.51.51,0,0,1,.31-.5,2.79,2.79,0,0,1,1.06-.14,2.72,2.72,0,0,1,1.05.14.51.51,0,0,1,.3.5v4.59a.52.52,0,0,1-.29.51,4,4,0,0,1-2.12,0,.52.52,0,0,1-.31-.51ZM360,54v4.7q0,.43.66.43t.66-.43V54q0-.44-.66-.44T360,54Zm5,5.23h-.67V53.46h.57l1.29,2.64,1.25-2.64H368v5.77h-.67V54.69l-1.17,2.07L365,54.69v4.55Zm5.38-5.77h.73v2.62a6.74,6.74,0,0,1,1.47.1.63.63,0,0,1,.54.64v1.77a.5.5,0,0,1-.33.51,3.29,3.29,0,0,1-1.12.13h-1.29V53.46Zm.73,2.8v2.82h.46a1.52,1.52,0,0,0,.66-.1.34.34,0,0,0,.18-.33v-2a.35.35,0,0,0-.17-.34,1.57,1.57,0,0,0-.68-.09Zm2.77,3V53.46h.7v5.77Zm3,0V53.46h.73V59h1.29V53.46h.7V59h1.3V53.46h.73v5.77Zm7.81,0h-1.37V59H384V54.1a.51.51,0,0,1,.3-.51,2.86,2.86,0,0,1,1.07-.14h1.35v5.77H386v-5.6h-.64q-.68,0-.68.42v5.18Zm6.39,0h-2V53.46h2v.21h-1.27v2.41h1v.21h-1V59h1.34v.22Zm2.56,0H393V53.46h.7v2.62H395V53.46h.7v5.77H395V56.3h-1.32v2.94Zm5.07,0H398V53.46h.7v2.62h1.32V53.46h.7v5.77h-.7V56.3h-1.32v2.94Zm4.37-.6V54a.51.51,0,0,1,.31-.5,2.79,2.79,0,0,1,1.06-.14,2.73,2.73,0,0,1,1.05.14.51.51,0,0,1,.3.5v4.59a.52.52,0,0,1-.29.51,4,4,0,0,1-2.12,0,.52.52,0,0,1-.31-.51Zm.7-4.64v4.7q0,.43.66.43t.66-.43V54q0-.44-.66-.44t-.66.44Zm5.08,5.23h-.73V53.46h2v.21H408.9v5.56Zm3.11-.6V54a.51.51,0,0,1,.31-.5,2.79,2.79,0,0,1,1.06-.14,2.73,2.73,0,0,1,1.05.14.51.51,0,0,1,.3.5v4.59a.52.52,0,0,1-.29.51,4,4,0,0,1-2.12,0,.52.52,0,0,1-.31-.51Zm.7-4.64v4.7q0,.43.66.43t.66-.43V54q0-.44-.66-.44t-.66.44ZM421,58.64V54a.51.51,0,0,1,.31-.5,2.79,2.79,0,0,1,1.06-.14,2.72,2.72,0,0,1,1.05.14.51.51,0,0,1,.3.5v4.59a.52.52,0,0,1-.29.51,4,4,0,0,1-2.12,0,.52.52,0,0,1-.31-.51Zm.7-4.64v4.7q0,.43.66.43t.66-.43V54q0-.44-.66-.44t-.66.44Zm6.86-.38h-1.79v2.47a6.69,6.69,0,0,1,1.48.1.63.63,0,0,1,.54.64v1.77a.5.5,0,0,1-.32.51,3.21,3.21,0,0,1-1.12.13H426V53.46h2.49v.16Zm-1.79,2.64v2.82h.48a1.52,1.52,0,0,0,.66-.1.34.34,0,0,0,.18-.33v-2a.35.35,0,0,0-.17-.34,1.57,1.57,0,0,0-.68-.09Zm4.37,2.38V54a.51.51,0,0,1,.31-.5,2.79,2.79,0,0,1,1.06-.14,2.73,2.73,0,0,1,1.05.14.51.51,0,0,1,.3.5v4.59a.52.52,0,0,1-.29.51,4,4,0,0,1-2.12,0,.52.52,0,0,1-.31-.51Zm.7-4.64v4.7q0,.43.66.43t.66-.43V54q0-.44-.66-.44t-.66.44Zm7.09.09v2.58c0,.31-.19.5-.58.57a9.36,9.36,0,0,1-1.45.06v1.92h-.7V53.46h1.29a3.4,3.4,0,0,1,1.12.13.5.5,0,0,1,.31.51Zm-.7,2.64V54a.35.35,0,0,0-.17-.34,1.57,1.57,0,0,0-.68-.09h-.48v3.54h.48a1.64,1.64,0,0,0,.67-.09.33.33,0,0,0,.17-.33ZM441.07,58h.7v.71q0,.43.68.43A.84.84,0,0,0,443,59a.4.4,0,0,0,.1-.31V57.31a10.7,10.7,0,0,1-1.45-.06q-.57-.12-.57-.58V53.46h.7v3.28a.33.33,0,0,0,.17.33,1.64,1.64,0,0,0,.67.09h.48V53.46h.7v5.18a.52.52,0,0,1-.29.51,2.6,2.6,0,0,1-1,.15,2.73,2.73,0,0,1-1.06-.15.51.51,0,0,1-.33-.5V58Zm5.77-3.93v5h1.32V53.63h-.66a1,1,0,0,0-.56.12.4.4,0,0,0-.1.31Zm-.7,5V54.1a.51.51,0,0,1,.3-.51,2.86,2.86,0,0,1,1.07-.14h1.35V59h.68v.21h-4.09V59Zm5.07-.38V54a.51.51,0,0,1,.31-.5,2.79,2.79,0,0,1,1.06-.14,2.73,2.73,0,0,1,1.05.14.51.51,0,0,1,.3.5v4.59a.52.52,0,0,1-.29.51,4,4,0,0,1-2.12,0,.52.52,0,0,1-.31-.51Zm.7-4.64v4.7q0,.43.66.43t.66-.43V54q0-.44-.66-.44t-.66.44Zm5.66,5.23h-1.29V53.46h1.29a3.4,3.4,0,0,1,1.12.13.5.5,0,0,1,.31.51v1.43a.61.61,0,0,1-.11.41,1,1,0,0,1-.64.24,1,1,0,0,1,.64.24.63.63,0,0,1,.11.42v1.77a.5.5,0,0,1-.32.51,3.22,3.22,0,0,1-1.12.13Zm-.11-5.62H457v2.47h.48a1.53,1.53,0,0,0,.66-.1.34.34,0,0,0,.18-.33V54a.35.35,0,0,0-.17-.34,1.56,1.56,0,0,0-.68-.09Zm0,2.64H457v2.82h.48a1.52,1.52,0,0,0,.66-.1.34.34,0,0,0,.18-.33v-2a.35.35,0,0,0-.17-.34,1.57,1.57,0,0,0-.68-.09Zm3.89,3V54.1a.51.51,0,0,1,.3-.51,2.86,2.86,0,0,1,1.07-.14h1.35v5.77h-.7V56.3H462v2.94Zm.7-3.15h1.32V53.63h-.64q-.68,0-.68.42v2Zm5.07,3.15h-.7V53.46h.7v2.62h1.32V53.46h.7v5.77h-.7V56.3h-1.32v2.94Zm6.5,0V54.39l-.93,1.55a4.51,4.51,0,0,0-.47.78v2.52h-.65V53.46h.65v2.69l1.52-2.69h.55v5.77Zm3.1-.21v-2.2q0-.58.75-.65-.75-.09-.75-.64V54.1a.5.5,0,0,1,.31-.51,3.4,3.4,0,0,1,1.12-.13h1.29v5.77h-.7v-3h-.47a1.62,1.62,0,0,0-.68.09.36.36,0,0,0-.17.34v2.55H476V59Zm1.55-5.41a1.61,1.61,0,0,0-.68.09.36.36,0,0,0-.17.34v1.61a.34.34,0,0,0,.18.33,1.57,1.57,0,0,0,.67.1h.47V53.62Z"/><path class="cls-1" d="M236.76,53.94H236V59.5h-1.23v-6.3H238v6.3h-1.23V53.94Zm-1.32,5V53.72h-.17V59Zm2-5.24h-.17V59h.17V53.72Zm5.6.37v2.58a.76.76,0,0,1-.22.56,1.07,1.07,0,0,1-.57.27,3.63,3.63,0,0,1-.54.05l-.69,0V59.5H239.8v-6.3h1.55a6.56,6.56,0,0,1,.72,0,2,2,0,0,1,.51.11.72.72,0,0,1,.36.3.86.86,0,0,1,.12.46Zm-.53,2.58V54.1a.36.36,0,0,0,0-.18.21.21,0,0,0-.11-.08l-.06,0a.78.78,0,0,1,0,.24v2.69a.75.75,0,0,1,0,.21.39.39,0,0,0,.13-.08.25.25,0,0,0,.07-.19Zm-2,.64V53.72h-.17V59h.17V57.31Zm1.32-.57V54a.22.22,0,0,0,0-.09l0,0h0l-.15,0-.39,0H241v3h.21l.38,0,.16,0h0l0,0a.18.18,0,0,0,0-.08Zm2.88,1.9V54a.84.84,0,0,1,.12-.45.77.77,0,0,1,.35-.3,1.77,1.77,0,0,1,.5-.13,5.12,5.12,0,0,1,.67,0,2.94,2.94,0,0,1,1.16.17.76.76,0,0,1,.34.3A.84.84,0,0,1,248,54v4.59a.88.88,0,0,1-.11.44.75.75,0,0,1-.33.3,1.65,1.65,0,0,1-.49.13,5.2,5.2,0,0,1-.68,0,3,3,0,0,1-1.17-.17.78.78,0,0,1-.35-.3.84.84,0,0,1-.12-.45Zm.53-4.59v4.59a.32.32,0,0,0,0,.17.26.26,0,0,0,.12.1l0,0a.72.72,0,0,1,0-.22V54a.74.74,0,0,1,0-.24l-.05,0a.26.26,0,0,0-.12.09.32.32,0,0,0,0,.17Zm2-.26-.06,0a.74.74,0,0,1,0,.24v4.7a.81.81,0,0,1,0,.23l.06,0a.23.23,0,0,0,.11-.09.37.37,0,0,0,0-.18V54a.33.33,0,0,0,0-.17.25.25,0,0,0-.11-.09Zm-1.34.22v4.7a.11.11,0,0,0,0,.1.68.68,0,0,0,.35.06q.4,0,.4-.17V54a.12.12,0,0,0,0-.11,1,1,0,0,0-.7,0,.12.12,0,0,0,0,.11Zm5.07.05v4.7h.79V53.9h-.4l-.29,0-.09,0h0a.38.38,0,0,0,0,.11ZM250.48,59V54.06a.9.9,0,0,1,0-.24l-.05,0a.24.24,0,0,0-.11.09.35.35,0,0,0,0,.18V59Zm1.85-5.24V59h.17V53.72Zm-2.55,5V54.1a.86.86,0,0,1,.11-.45h0a.75.75,0,0,1,.34-.3,1.76,1.76,0,0,1,.49-.12,5.41,5.41,0,0,1,.68,0H253v5.56h.68v.74h-4.62v-.74Zm5.07.48V54.1a.86.86,0,0,1,.11-.45h0a.75.75,0,0,1,.34-.3,1.75,1.75,0,0,1,.49-.12,5.42,5.42,0,0,1,.68,0h1.62v6.3h-1.23V56.56h-.79V59.5h-1.23v-.27Zm.53-5.13V59h.17V54.06a.69.69,0,0,1,0-.24l-.07,0a.24.24,0,0,0-.11.09.35.35,0,0,0,0,.18Zm2.19-.38h-.17V59h.17V53.72Zm-1.49,2.09h.79V53.9h-.38a.74.74,0,0,0-.37.06.1.1,0,0,0,0,.09v1.76Zm4.54,3.68h-1V56.74q0-.78,1-.9l-1.13-2.65h1.32l.84,2.32V53.19h1.23v2.34l.85-2.34H265l-1.13,2.65q1,.12,1,.9V59.5h-1.26V56.69a.29.29,0,0,0,0-.09h0l-.08,0-.31,0h-.38V59.5h-1.23V56.56h-.37a.94.94,0,0,0-.37,0h0a.24.24,0,0,0,0,.08V59.5Zm-.47-.53h.2V56.69a.76.76,0,0,1,0-.26.32.32,0,0,0-.24.3V59Zm.14-5.24.92,2.15-.78-2.15Zm1.88,2.36V59h.17V53.72h-.17v2.36Zm1.92-2.36-.84,2.3,1-2.3Zm.28,3a.32.32,0,0,0-.24-.3.81.81,0,0,1,0,.25V59h.2V56.74Zm-.74-.14h0Zm2.8,2.64V54.1a.86.86,0,0,1,.11-.45h0a.75.75,0,0,1,.34-.3,1.75,1.75,0,0,1,.49-.12,5.42,5.42,0,0,1,.68,0h1.62v6.3h-1.23V56.56h-.79V59.5h-1.23v-.27ZM267,54.1V59h.17V54.06a.69.69,0,0,1,0-.24l-.07,0a.24.24,0,0,0-.11.09.35.35,0,0,0,0,.18Zm2.19-.38H269V59h.17V53.72Zm-1.49,2.09h.79V53.9h-.38a.74.74,0,0,0-.37.06.1.1,0,0,0,0,.09v1.76Zm7.72,2.82V54a.83.83,0,0,1,.12-.45.77.77,0,0,1,.35-.3,1.77,1.77,0,0,1,.5-.13,5.13,5.13,0,0,1,.67,0,2.94,2.94,0,0,1,1.16.17.76.76,0,0,1,.34.3.84.84,0,0,1,.11.44v1.42H277.4V54a.12.12,0,0,0,0-.11,1,1,0,0,0-.7,0,.12.12,0,0,0,0,.11v4.7a.11.11,0,0,0,0,.1.68.68,0,0,0,.35.06q.39,0,.39-.17V57.1h1.23v1.54a.88.88,0,0,1-.11.44.75.75,0,0,1-.33.3,1.65,1.65,0,0,1-.49.13,5.2,5.2,0,0,1-.68,0,3,3,0,0,1-1.17-.17.78.78,0,0,1-.35-.3.84.84,0,0,1-.12-.45Zm.53-4.59v4.59a.32.32,0,0,0,0,.17.26.26,0,0,0,.12.1l0,0a.73.73,0,0,1,0-.22V54a.74.74,0,0,1,0-.24l-.05,0a.26.26,0,0,0-.12.09.32.32,0,0,0,0,.17Zm2-.26-.06,0a.74.74,0,0,1,0,.24v.94h.17V54a.33.33,0,0,0,0-.17.25.25,0,0,0-.11-.09Zm0,4.91a.81.81,0,0,1,0,.23l.06,0a.23.23,0,0,0,.11-.09.37.37,0,0,0,0-.18v-1h-.17V58.7Zm3.7.8h-1V53.94h-1v-.74h3.3v.74h-1V59.5Zm-.47-.53h.2V53.72h-.2V59Zm6.14-4.87v2.58a.76.76,0,0,1-.22.56,1.07,1.07,0,0,1-.57.27,3.63,3.63,0,0,1-.54.05l-.69,0V59.5h-1.23v-6.3h1.55a6.57,6.57,0,0,1,.72,0,2,2,0,0,1,.51.11.72.72,0,0,1,.36.3.86.86,0,0,1,.12.46Zm-.53,2.58V54.1a.35.35,0,0,0,0-.18.2.2,0,0,0-.1-.08l-.06,0a.77.77,0,0,1,0,.24v2.69a.75.75,0,0,1,0,.21.39.39,0,0,0,.13-.08.25.25,0,0,0,.07-.19Zm-2,.64V53.72h-.17V59h.17V57.31Zm1.32-.57V54a.22.22,0,0,0,0-.09l0,0h0l-.15,0-.39,0h-.21v3h.21l.38,0,.16,0h0l0,0a.18.18,0,0,0,0-.08Zm2.88,1.9V54a.83.83,0,0,1,.12-.45.77.77,0,0,1,.35-.3,1.77,1.77,0,0,1,.5-.13,5.12,5.12,0,0,1,.67,0,2.94,2.94,0,0,1,1.16.17.76.76,0,0,1,.34.3.84.84,0,0,1,.11.44v4.59a.88.88,0,0,1-.11.44.75.75,0,0,1-.33.3,1.65,1.65,0,0,1-.49.13,5.2,5.2,0,0,1-.68,0,3,3,0,0,1-1.17-.17.79.79,0,0,1-.35-.3.84.84,0,0,1-.12-.45Zm.53-4.59v4.59a.32.32,0,0,0,0,.17.26.26,0,0,0,.12.1l0,0a.73.73,0,0,1,0-.22V54a.73.73,0,0,1,0-.24l-.05,0a.26.26,0,0,0-.12.09.32.32,0,0,0,0,.17Zm2-.26-.06,0a.73.73,0,0,1,0,.24v4.7a.81.81,0,0,1,0,.23l.06,0a.23.23,0,0,0,.1-.09.36.36,0,0,0,0-.18V54a.33.33,0,0,0,0-.17.25.25,0,0,0-.11-.09Zm-1.34.22v4.7a.11.11,0,0,0,0,.1.68.68,0,0,0,.35.06q.39,0,.39-.17V54a.12.12,0,0,0,0-.11,1,1,0,0,0-.7,0,.12.12,0,0,0,0,.11Zm6,5.23V55.34l-.45.74v0a2.45,2.45,0,0,0-.19.28q-.1.16-.22.39V59.5h-1.18v-6.3h1.18v1.95l1.1-1.95h1v6.3h-1.2v-.27Zm.53-4.85V59h.14V53.72h-.14v.66Zm-1.93,2.33v-3h-.12V59h.12V56.71Zm5.81,2.79h-1V53.94h-1v-.74h3.3v.74h-1V59.5ZM300.1,59h.2V53.72h-.2V59Zm5.19.53H303v-6.3h2.5v.74h-1.27v1.88h1v.74h-1v2.19h1.34v.75ZM303.52,59h.17V53.72h-.17V59Zm4.35.53h-1.63v-.74h.67V54.1a.75.75,0,0,1,.46-.75,1.76,1.76,0,0,1,.49-.12,5.41,5.41,0,0,1,.68,0h1.62v6.3h-1.23V53.9h-.38a.74.74,0,0,0-.37.06.1.1,0,0,0,0,.09V59.5Zm-.44-.53h.17V54.06a.69.69,0,0,1,0-.24l-.07,0a.26.26,0,0,0-.15.27V59Zm2.19-5.24h-.17V59h.17V53.72Zm2.6-.53h1v2.63l.68,0a3.17,3.17,0,0,1,.6.09,1.06,1.06,0,0,1,.54.32.85.85,0,0,1,.2.57v1.77a.75.75,0,0,1-.48.76,2,2,0,0,1-.51.12,6.12,6.12,0,0,1-.71,0H312v-6.3Zm.44.53h-.17V59h.17V53.72Zm1.95,2.87a.4.4,0,0,0-.12-.09.82.82,0,0,1,0,.19v2a.7.7,0,0,1,0,.22l.05,0a.26.26,0,0,0,.16-.27V56.82a.34.34,0,0,0-.07-.23Zm-1.42-.07v2.29h.21l.37,0,.17,0h0l0,0a.15.15,0,0,0,0-.07v-2a.22.22,0,0,0,0-.09l0,0h0l-.15,0-.39,0Zm4.8,3h-1v-6.3h1.23v2.62H319V53.19h1.23v6.3H319V56.56h-.79V59.5Zm-.44-.53h.17V53.72h-.17V59Zm2-2.89V59h.17V53.72h-.17v2.36Zm2.52,2.55V54a.83.83,0,0,1,.12-.45.77.77,0,0,1,.35-.3,1.77,1.77,0,0,1,.5-.13,5.12,5.12,0,0,1,.67,0,2.94,2.94,0,0,1,1.16.17.76.76,0,0,1,.34.3.84.84,0,0,1,.11.44v4.59a.88.88,0,0,1-.11.44.76.76,0,0,1-.34.3,1.65,1.65,0,0,1-.49.13,5.19,5.19,0,0,1-.68,0,3,3,0,0,1-1.17-.17.79.79,0,0,1-.35-.3.84.84,0,0,1-.12-.45Zm.53-4.59v4.59a.33.33,0,0,0,0,.17.27.27,0,0,0,.12.1l0,0a.73.73,0,0,1,0-.22V54a.73.73,0,0,1,0-.24l-.05,0a.26.26,0,0,0-.12.09.32.32,0,0,0,0,.17Zm2-.26-.06,0a.73.73,0,0,1,0,.24v4.7a.8.8,0,0,1,0,.23l.06,0a.23.23,0,0,0,.11-.09.38.38,0,0,0,0-.18V54a.33.33,0,0,0,0-.17.25.25,0,0,0-.11-.09Zm-1.34.22v4.7a.11.11,0,0,0,0,.1.68.68,0,0,0,.35.06q.39,0,.4-.17V54a.12.12,0,0,0,0-.11,1,1,0,0,0-.7,0,.12.12,0,0,0,0,.11Zm4.82,5.5h-1v-6.3h2.5v.74h-1.24V59.5Zm-.47-.53h.2V53.72h-.2V59Zm3.32-.33V54a.83.83,0,0,1,.12-.45.77.77,0,0,1,.35-.3,1.77,1.77,0,0,1,.49-.13,5.13,5.13,0,0,1,.67,0,2.94,2.94,0,0,1,1.16.17.76.76,0,0,1,.34.3.84.84,0,0,1,.11.44v4.59a.88.88,0,0,1-.11.44.75.75,0,0,1-.33.3,1.65,1.65,0,0,1-.49.13,5.2,5.2,0,0,1-.68,0,3,3,0,0,1-1.17-.17.78.78,0,0,1-.35-.3.84.84,0,0,1-.12-.45Zm.53-4.59v4.59a.33.33,0,0,0,0,.17.26.26,0,0,0,.12.1l0,0a.73.73,0,0,1,0-.22V54a.74.74,0,0,1,0-.24l-.05,0a.26.26,0,0,0-.12.09.32.32,0,0,0,0,.17Zm2-.26-.06,0a.74.74,0,0,1,0,.24v4.7a.81.81,0,0,1,0,.23l.06,0a.24.24,0,0,0,.1-.09.37.37,0,0,0,0-.18V54a.33.33,0,0,0,0-.17.25.25,0,0,0-.11-.09Zm-1.34.22v4.7a.11.11,0,0,0,0,.1.68.68,0,0,0,.35.06q.39,0,.4-.17V54a.12.12,0,0,0,0-.11.66.66,0,0,0-.35-.07.66.66,0,0,0-.35.07.12.12,0,0,0,0,.11Zm9.85,5.23V55.34l-.45.74v0a2.46,2.46,0,0,0-.19.28q-.1.16-.22.39V59.5H340v-6.3h1.18v1.95l1.1-1.95h1v6.3h-1.2v-.27Zm.53-4.85V59h.14V53.72h-.14v.66Zm-1.93,2.33v-3h-.12V59h.12V56.71Zm10.38-2.78h-.79V59.5H349v-6.3h3.25v6.3h-1.23V53.94Zm-1.32,5V53.72h-.17V59Zm2-5.24h-.17V59h.17V53.72Zm5.6.37v2.58a.76.76,0,0,1-.22.56,1.07,1.07,0,0,1-.57.27,3.64,3.64,0,0,1-.54.05l-.69,0V59.5H354.1v-6.3h1.55a6.56,6.56,0,0,1,.72,0,2,2,0,0,1,.51.11.72.72,0,0,1,.36.3.86.86,0,0,1,.12.46Zm-.53,2.58V54.1a.35.35,0,0,0,0-.18.21.21,0,0,0-.1-.08l-.06,0a.77.77,0,0,1,0,.24v2.69a.75.75,0,0,1,0,.21.39.39,0,0,0,.13-.08.25.25,0,0,0,.07-.19Zm-2,.64V53.72h-.17V59h.17V57.31Zm1.32-.57V54a.22.22,0,0,0,0-.09l0,0h0l-.15,0-.39,0h-.21v3h.21l.38,0,.16,0h0l0,0a.18.18,0,0,0,0-.08Zm2.88,1.9V54a.83.83,0,0,1,.12-.45.77.77,0,0,1,.35-.3,1.77,1.77,0,0,1,.5-.13,5.12,5.12,0,0,1,.67,0,2.94,2.94,0,0,1,1.16.17.76.76,0,0,1,.34.3.84.84,0,0,1,.11.44v4.59a.88.88,0,0,1-.11.44.75.75,0,0,1-.33.3,1.66,1.66,0,0,1-.49.13,5.2,5.2,0,0,1-.68,0,3,3,0,0,1-1.17-.17.78.78,0,0,1-.35-.3.84.84,0,0,1-.12-.45Zm.53-4.59v4.59a.33.33,0,0,0,0,.17.26.26,0,0,0,.12.1l0,0a.73.73,0,0,1,0-.22V54a.73.73,0,0,1,0-.24l-.05,0a.26.26,0,0,0-.12.09.32.32,0,0,0,0,.17Zm2-.26-.06,0a.74.74,0,0,1,0,.24v4.7a.8.8,0,0,1,0,.23l.06,0a.23.23,0,0,0,.1-.09.36.36,0,0,0,0-.18V54a.33.33,0,0,0,0-.17.25.25,0,0,0-.11-.09Zm-1.34.22v4.7a.11.11,0,0,0,0,.1.68.68,0,0,0,.35.06q.4,0,.4-.17V54a.12.12,0,0,0,0-.11.66.66,0,0,0-.35-.07.67.67,0,0,0-.35.07.12.12,0,0,0,0,.11ZM365,59.5h-.93v-6.3h1l1.12,2.29,1.09-2.29h1v6.3h-1.2V55.69l-.91,1.6-.93-1.61V59.5Zm-.4-.53h.14V53.72h-.14V59Zm3.17-5.24h-.14V59h.14V53.72Zm2.61-.53h1v2.63l.67,0a3.33,3.33,0,0,1,.61.09h0a1,1,0,0,1,.53.32.86.86,0,0,1,.2.57v1.77a.83.83,0,0,1-.12.46.76.76,0,0,1-.37.3,2,2,0,0,1-.51.12,6.18,6.18,0,0,1-.71,0h-1.55v-6.3Zm.47.53h-.2V59h.2V53.72Zm1.93,2.87a.39.39,0,0,0-.12-.09.82.82,0,0,1,0,.19v2a.69.69,0,0,1,0,.22l0,0a.25.25,0,0,0,.12-.09.33.33,0,0,0,0-.17V56.82a.35.35,0,0,0-.07-.23Zm-1.4-.07v2.29h.2l.37,0,.17,0h0l0,0a.15.15,0,0,0,0-.07v-2a.22.22,0,0,0,0-.09l0,0h0l-.15,0-.39,0Zm2.24,2.71v-6h1.23v6.3h-1.23v-.27Zm.53-5.51V59h.17V53.72Zm2.5,5.51v-6h1.26v5.56h.76V53.19h1.23v5.56h.77V53.19h1.26v6.3h-5.29v-.27Zm.53-5.51V59h.2V53.72Zm2,0V59h.17V53.72Zm2,0V59h.2V53.72Zm3.52,5.77H383.1v-.74h.67V54.1a.75.75,0,0,1,.46-.75,1.76,1.76,0,0,1,.49-.12,5.41,5.41,0,0,1,.68,0H387v6.3h-1.23V53.9h-.38A.74.74,0,0,0,385,54a.1.1,0,0,0,0,.09V59.5Zm-.44-.53h.17V54.06a.69.69,0,0,1,0-.24l-.07,0a.26.26,0,0,0-.15.27V59Zm2.19-5.24h-.17V59h.17V53.72Zm4.63,5.77h-2.3v-6.3h2.5v.74H390v1.88h1v.74h-1v2.19h1.34v.75ZM389.35,59h.17V53.72h-.17V59Zm4.33.53h-1v-6.3h1.23v2.62h.79V53.19H396v6.3h-1.23V56.56h-.79V59.5Zm-.44-.53h.17V53.72h-.17V59Zm2-2.89V59h.17V53.72h-.17v2.36Zm3.48,3.42h-1v-6.3H399v2.62h.79V53.19H401v6.3H399.8V56.56H399V59.5Zm-.44-.53h.17V53.72h-.17V59Zm2-2.89V59h.17V53.72h-.17v2.36Zm2.52,2.55V54a.83.83,0,0,1,.12-.45.77.77,0,0,1,.35-.3,1.77,1.77,0,0,1,.5-.13,5.13,5.13,0,0,1,.67,0,2.94,2.94,0,0,1,1.16.17.76.76,0,0,1,.34.3.84.84,0,0,1,.11.44v4.59a.88.88,0,0,1-.11.44.75.75,0,0,1-.33.3,1.65,1.65,0,0,1-.49.13,5.2,5.2,0,0,1-.68,0,3,3,0,0,1-1.17-.17.78.78,0,0,1-.35-.3.84.84,0,0,1-.12-.45Zm.53-4.59v4.59a.32.32,0,0,0,0,.17.26.26,0,0,0,.12.1l0,0a.73.73,0,0,1,0-.22V54a.74.74,0,0,1,0-.24l-.05,0a.26.26,0,0,0-.12.09.32.32,0,0,0,0,.17Zm2-.26-.06,0a.73.73,0,0,1,0,.24v4.7a.81.81,0,0,1,0,.23l.06,0a.23.23,0,0,0,.11-.09.36.36,0,0,0,0-.18V54a.33.33,0,0,0,0-.17.25.25,0,0,0-.11-.09Zm-1.34.22v4.7a.11.11,0,0,0,0,.1.68.68,0,0,0,.35.06q.39,0,.4-.17V54a.12.12,0,0,0,0-.11.66.66,0,0,0-.35-.07.66.66,0,0,0-.35.07.12.12,0,0,0,0,.11Zm4.82,5.5h-1v-6.3h2.5v.74h-1.24V59.5Zm-.47-.53h.2V53.72h-.2V59Zm3.32-.33V54a.83.83,0,0,1,.12-.45.77.77,0,0,1,.35-.3,1.77,1.77,0,0,1,.5-.13,5.12,5.12,0,0,1,.67,0,2.94,2.94,0,0,1,1.16.17.76.76,0,0,1,.34.3A.84.84,0,0,1,415,54v4.59a.88.88,0,0,1-.11.44.75.75,0,0,1-.33.3,1.65,1.65,0,0,1-.49.13,5.19,5.19,0,0,1-.68,0,3,3,0,0,1-1.17-.17.79.79,0,0,1-.35-.3.84.84,0,0,1-.12-.45Zm.53-4.59v4.59a.32.32,0,0,0,0,.17.26.26,0,0,0,.12.1l0,0a.72.72,0,0,1,0-.22V54a.74.74,0,0,1,0-.24l-.05,0a.26.26,0,0,0-.12.09.32.32,0,0,0,0,.17Zm2-.26-.06,0a.74.74,0,0,1,0,.24v4.7a.81.81,0,0,1,0,.23l.06,0a.24.24,0,0,0,.11-.09.37.37,0,0,0,0-.18V54a.33.33,0,0,0,0-.17.24.24,0,0,0-.11-.09ZM413,54v4.7a.11.11,0,0,0,0,.1.68.68,0,0,0,.35.06q.39,0,.39-.17V54a.12.12,0,0,0,0-.11,1,1,0,0,0-.7,0,.12.12,0,0,0,0,.11Zm7.72,4.64V54a.84.84,0,0,1,.12-.45.77.77,0,0,1,.35-.3,1.77,1.77,0,0,1,.5-.13,5.13,5.13,0,0,1,.67,0,2.94,2.94,0,0,1,1.16.17.76.76,0,0,1,.34.3.84.84,0,0,1,.11.44v4.59a.88.88,0,0,1-.11.44.75.75,0,0,1-.33.3,1.65,1.65,0,0,1-.49.13,5.2,5.2,0,0,1-.68,0,3,3,0,0,1-1.17-.17.78.78,0,0,1-.35-.3.84.84,0,0,1-.12-.45Zm.53-4.59v4.59a.32.32,0,0,0,0,.17.26.26,0,0,0,.12.1l0,0a.72.72,0,0,1,0-.22V54a.74.74,0,0,1,0-.24l-.05,0a.26.26,0,0,0-.12.09.32.32,0,0,0,0,.17Zm2-.26-.06,0a.74.74,0,0,1,0,.24v4.7a.81.81,0,0,1,0,.23l.06,0a.23.23,0,0,0,.1-.09.36.36,0,0,0,0-.18V54a.33.33,0,0,0,0-.17.25.25,0,0,0-.11-.09Zm-1.34.22v4.7a.11.11,0,0,0,0,.1.68.68,0,0,0,.35.06q.4,0,.39-.17V54a.12.12,0,0,0,0-.11.66.66,0,0,0-.35-.07.67.67,0,0,0-.35.07.12.12,0,0,0,0,.11Zm6.6-.12H427v1.94l.68,0a3.17,3.17,0,0,1,.6.09,1.06,1.06,0,0,1,.54.32.85.85,0,0,1,.2.57v1.77a.75.75,0,0,1-.48.76,2,2,0,0,1-.51.12,6.12,6.12,0,0,1-.71,0h-1.55v-6.3h3v.69Zm-2.06,2.2V53.72h-.17V59h.17V56.08Zm1.95.51a.4.4,0,0,0-.12-.09.82.82,0,0,1,0,.19v2a.7.7,0,0,1,0,.22l.05,0a.26.26,0,0,0,.16-.27V56.82a.34.34,0,0,0-.07-.23ZM427,56.52v2.29h.21l.37,0,.17,0h0l0,0a.15.15,0,0,0,0-.07v-2a.22.22,0,0,0,0-.09l0,0h0l-.15,0-.39,0Zm3.84,2.12V54a.83.83,0,0,1,.12-.45.77.77,0,0,1,.35-.3,1.77,1.77,0,0,1,.5-.13,5.12,5.12,0,0,1,.67,0,2.94,2.94,0,0,1,1.16.17.76.76,0,0,1,.34.3.84.84,0,0,1,.11.44v4.59a.88.88,0,0,1-.11.44.75.75,0,0,1-.34.3,1.65,1.65,0,0,1-.49.13,5.19,5.19,0,0,1-.68,0,3,3,0,0,1-1.17-.17.79.79,0,0,1-.35-.3.84.84,0,0,1-.12-.45Zm.53-4.59v4.59a.33.33,0,0,0,0,.17.27.27,0,0,0,.12.1l0,0a.73.73,0,0,1,0-.22V54a.74.74,0,0,1,0-.24l-.05,0a.26.26,0,0,0-.12.09.32.32,0,0,0,0,.17Zm2-.26-.06,0a.74.74,0,0,1,0,.24v4.7a.8.8,0,0,1,0,.23l.06,0a.24.24,0,0,0,.11-.09.37.37,0,0,0,0-.18V54a.33.33,0,0,0,0-.17.25.25,0,0,0-.11-.09Zm-1.34.22v4.7a.11.11,0,0,0,0,.1.68.68,0,0,0,.35.06q.39,0,.4-.17V54a.12.12,0,0,0,0-.11,1,1,0,0,0-.7,0,.12.12,0,0,0,0,.11Zm7.09.09v2.58a.76.76,0,0,1-.22.56,1.07,1.07,0,0,1-.57.27,3.63,3.63,0,0,1-.54.05l-.69,0V59.5H435.9v-6.3h1.55a6.57,6.57,0,0,1,.72,0,2,2,0,0,1,.51.11.72.72,0,0,1,.36.3.86.86,0,0,1,.12.46Zm-.53,2.58V54.1a.35.35,0,0,0,0-.18.2.2,0,0,0-.1-.08l-.06,0a.78.78,0,0,1,0,.24v2.69a.75.75,0,0,1,0,.21.38.38,0,0,0,.13-.08.25.25,0,0,0,.07-.19Zm-2,.64V53.72h-.17V59h.17V57.31Zm1.32-.57V54a.22.22,0,0,0,0-.09l0,0h0l-.15,0-.39,0h-.21v3h.21l.38,0,.16,0h0l0,0a.18.18,0,0,0,0-.08Zm3.15,1h1v1q0,.17.41.17a1.34,1.34,0,0,0,.28,0l.08,0h0a.37.37,0,0,0,0-.11V57.57a8.76,8.76,0,0,1-1.24-.06h0a1.07,1.07,0,0,1-.56-.28.77.77,0,0,1-.22-.56V53.19H442v3.54a.17.17,0,0,0,0,.08l0,0h0l.16,0,.38,0h.21V53.19h1.23v5.44a.86.86,0,0,1-.11.44.77.77,0,0,1-.33.3,1.62,1.62,0,0,1-.49.13,5,5,0,0,1-.67,0,4.85,4.85,0,0,1-.67,0,1.83,1.83,0,0,1-.5-.13.82.82,0,0,1-.36-.3.8.8,0,0,1-.12-.45v-.92Zm.44.53h-.17v.39a.29.29,0,0,0,0,.16.3.3,0,0,0,.13.1h0a.82.82,0,0,1,0-.21v-.45Zm1.85.45a.93.93,0,0,1,0,.23l.05,0a.25.25,0,0,0,.11-.09.35.35,0,0,0,0-.17V53.72h-.17v5Zm-2-1.84a.39.39,0,0,0,.13.08.74.74,0,0,1,0-.21v-3h-.17v2.95a.26.26,0,0,0,.07.19Zm5.7-2.81v4.7h.79V53.9h-.39l-.29,0-.09,0h0a.37.37,0,0,0,0,.11ZM446.57,59V54.06a.9.9,0,0,1,0-.24l-.05,0a.24.24,0,0,0-.11.09.35.35,0,0,0,0,.18V59Zm1.85-5.24V59h.17V53.72Zm-2.55,5V54.1a.86.86,0,0,1,.11-.45h0a.75.75,0,0,1,.34-.3,1.75,1.75,0,0,1,.49-.12,5.42,5.42,0,0,1,.68,0h1.62v5.56h.68v.74h-4.62v-.74Zm5.07-.12V54a.84.84,0,0,1,.12-.45.77.77,0,0,1,.35-.3,1.77,1.77,0,0,1,.5-.13,5.12,5.12,0,0,1,.67,0,2.94,2.94,0,0,1,1.16.17.76.76,0,0,1,.34.3.84.84,0,0,1,.11.44v4.59a.88.88,0,0,1-.11.44.75.75,0,0,1-.33.3,1.65,1.65,0,0,1-.49.13,5.2,5.2,0,0,1-.68,0,3,3,0,0,1-1.17-.17.78.78,0,0,1-.35-.3.84.84,0,0,1-.12-.45Zm.53-4.59v4.59a.32.32,0,0,0,0,.17.26.26,0,0,0,.12.1l0,0a.73.73,0,0,1,0-.22V54a.74.74,0,0,1,0-.24l-.05,0a.26.26,0,0,0-.12.09.32.32,0,0,0,0,.17Zm2-.26-.06,0a.74.74,0,0,1,0,.24v4.7a.81.81,0,0,1,0,.23l.06,0a.23.23,0,0,0,.11-.09.36.36,0,0,0,0-.18V54a.33.33,0,0,0,0-.17.25.25,0,0,0-.11-.09Zm-1.34.22v4.7a.11.11,0,0,0,0,.1.68.68,0,0,0,.35.06q.4,0,.4-.17V54a.12.12,0,0,0,0-.11,1,1,0,0,0-.7,0,.12.12,0,0,0,0,.11Zm5.39,5.5H456V56.22l-.25,0,.25,0v-3h1.55a6.57,6.57,0,0,1,.72,0,2,2,0,0,1,.51.11.72.72,0,0,1,.36.3.86.86,0,0,1,.12.46v1.43a1.2,1.2,0,0,1,0,.31.67.67,0,0,1-.14.27l-.06.06.06.06a.66.66,0,0,1,.14.27,1.23,1.23,0,0,1,0,.32v1.77a.85.85,0,0,1-.12.46.76.76,0,0,1-.36.3,2,2,0,0,1-.51.12,6.12,6.12,0,0,1-.71,0Zm-1-.53h.17V56.28l-.17,0V59Zm0-5.24V56.1l.17,0V53.72Zm2,.11-.06,0a.78.78,0,0,1,0,.24v1.61a.71.71,0,0,1,0,.18h0a.34.34,0,0,0,.13-.07.15.15,0,0,0,0-.06.68.68,0,0,0,0-.17V54.1a.35.35,0,0,0,0-.18.2.2,0,0,0-.1-.08Zm0,2.67h0a.83.83,0,0,1,0,.19v2a.69.69,0,0,1,0,.22l.05,0a.25.25,0,0,0,.12-.09.33.33,0,0,0,0-.18V56.82a.71.71,0,0,0,0-.18.16.16,0,0,0,0-.06h0a.31.31,0,0,0-.13-.07Zm-1.1-2.62h-.21v1.94h.21l.37,0,.17,0h0l0,0a.15.15,0,0,0,0-.07V54a.22.22,0,0,0,0-.09l0,0h0l-.15,0-.39,0Zm0,2.64h-.21v2.29h.21l.37,0,.17,0h0l0,0a.15.15,0,0,0,0-.07v-2a.22.22,0,0,0,0-.09l0,0h0l-.15,0-.39,0Zm3.62,2.71V54.1a.86.86,0,0,1,.11-.45h0a.75.75,0,0,1,.34-.3,1.75,1.75,0,0,1,.49-.12,5.42,5.42,0,0,1,.68,0h1.62v6.3H463.1V56.56h-.79V59.5h-1.23v-.27Zm.53-5.13V59h.17V54.06a.69.69,0,0,1,0-.24l-.07,0a.24.24,0,0,0-.11.09.35.35,0,0,0,0,.18Zm2.19-.38h-.17V59h.17V53.72Zm-1.49,2.09h.79V53.9h-.38a.74.74,0,0,0-.37.06.1.1,0,0,0,0,.09v1.76Zm4.8,3.68h-1v-6.3h1.23v2.62h.79V53.19h1.23v6.3h-1.23V56.56h-.79V59.5Zm-.44-.53h.17V53.72h-.17V59Zm2-2.89V59h.17V53.72h-.17v2.36Zm4.65,3.15V55.34l-.45.75h0a2.38,2.38,0,0,0-.19.28q-.1.16-.22.39V59.5H471.3v-6.3h1.18v1.95l1.1-1.95h1v6.3h-1.2v-.27Zm.53-4.85V59H474V53.72h-.14v.66ZM472,56.71v-3h-.12V59H472V56.71Zm4.5,2V56.82a.82.82,0,0,1,.28-.65h0a.8.8,0,0,1-.28-.64V54.1a.86.86,0,0,1,.12-.46.72.72,0,0,1,.36-.3,2,2,0,0,1,.51-.11,6.56,6.56,0,0,1,.72,0h1.55v3l.3,0-.3,0V59.5h-1.23v-3h-.2l-.39,0-.16,0,0,0a.21.21,0,0,0,0,.09V59.5h-1.93v-.74Zm.53-1.93V59h.17V56.69a.82.82,0,0,1,0-.18l-.09.06a.32.32,0,0,0-.1.25Zm2-.74.17,0V53.72H479v2.36Zm.17.19-.17,0V59h.17V56.27Zm-2.1-.51.09.06a.7.7,0,0,1,0-.17V54a.77.77,0,0,1,0-.24l-.06,0a.21.21,0,0,0-.11.08.36.36,0,0,0,0,.18v1.43a.3.3,0,0,0,.09.24Zm1.19-1.88-.39,0-.16,0,0,0a.21.21,0,0,0,0,.09v1.61a.14.14,0,0,0,0,.06l0,0,.17,0,.37,0h.2V53.88Z"/></g></g></svg>